<svg width="32" height="32" viewBox="0 0 32 32" fill="none" xmlns="http://www.w3.org/2000/svg">
<path fill-rule="evenodd" clip-rule="evenodd" d="M22.5487 4.14368C22.8783 3.45248 23.7438 1.92697 24.9662 1.91993C25.3144 1.91801 25.6 2.21177 25.6 2.55993V3.95743C26.6016 4.31135 27.7459 5.47759 28.3725 7.57743C28.5779 8.13935 29.0555 8.37301 29.06 8.37493C29.3442 8.50101 29.4968 8.81349 29.4212 9.11493C29.3035 9.58597 28.8198 11.5199 25.6 11.5199H24.96C25.1635 12.0307 25.6 13.1884 25.6 14.7199C25.6 16.663 24.7903 18.3923 23.1512 19.9987L25.04 26.0574C26.2112 26.3877 26.6966 27.1617 26.8675 28.0199C26.8765 28.0667 26.8806 28.1139 26.88 28.1599C26.8755 28.5055 26.6003 28.7999 26.2387 28.7999H24.4C23.5648 28.7999 22.8305 28.3243 22.3025 27.6312C21.8507 27.0379 20.8331 25.0543 19.9 23.1599L17.8562 18.9224C17.7027 18.6037 17.3187 18.4714 17.0025 18.6237C16.6838 18.7766 16.5501 19.16 16.7037 19.4787L18.3625 22.9199C17.7449 24.7049 15.7888 25.5999 14.72 25.5999H15.36C16.64 25.5999 17.92 26.2399 17.92 28.1599C17.92 28.5132 17.6333 28.7999 17.28 28.7999H7.68C6.64735 28.7999 5.77098 28.1792 5.36875 27.2962C4.79683 27.8276 4.03727 28.1599 3.2 28.1599C1.44031 28.1599 0 26.7196 0 24.9599C0 21.9614 0.84196 19.9032 1.7075 18.6049C2.57304 17.3066 3.51125 16.7312 3.51125 16.7312C3.61511 16.6667 3.73526 16.6333 3.8575 16.6349C3.99746 16.6371 4.13286 16.685 4.24296 16.7714C4.35307 16.8579 4.43181 16.978 4.46712 17.1134C4.50244 17.2489 4.49238 17.3922 4.43849 17.5213C4.3846 17.6505 4.28985 17.7585 4.16875 17.8287C4.16875 17.8287 3.50696 18.2132 2.7725 19.3149C2.03804 20.4166 1.28 22.1985 1.28 24.9599C1.28 26.0278 2.13217 26.8799 3.2 26.8799C4.26783 26.8799 5.12 26.0278 5.12 24.9599V22.3999C5.12 17.5999 8.17024 14.9599 10.88 13.4399C11.8594 12.8905 12.878 12.4875 13.8419 12.1061C15.5448 11.4322 17.0769 10.826 17.92 9.59993C18.0784 9.36952 18.2314 9.14533 18.3801 8.92744C19.7062 6.98418 20.6902 5.54222 22.1237 4.65368C22.2101 4.58776 22.3021 4.52857 22.4 4.47993C22.4 4.47993 22.4464 4.34272 22.5487 4.14368ZM26.8462 13.9687C27.3602 13.6903 27.9526 13.4399 28.8 13.4399C30.3904 13.4399 31.1034 14.4286 31.3312 15.1774C31.3504 15.2389 31.36 15.2998 31.36 15.3599C31.3613 15.7017 31.0823 15.9999 30.7175 15.9999H28.8C28.8 15.9999 27.8329 17.2824 26.1337 18.0312C26.624 16.9797 26.88 15.8745 26.88 14.7199C26.88 14.4588 26.8661 14.2106 26.8462 13.9687Z" fill="black"/>
</svg>
