<svg width="32" height="32" viewBox="0 0 32 32" fill="none" xmlns="http://www.w3.org/2000/svg">
<g clip-path="url(#clip0_0_467)">
<path d="M20.48 8.95996C20.105 8.95996 19.78 9.10246 19.54 9.37246C19.1275 9.83746 19.075 10.5525 19.1225 11.275C18.185 10.9925 16.35 10.4675 12.955 9.61996C8.00498 8.38246 4.78998 8.95496 2.70248 11.5025C2.40248 11.32 1.63498 10.7975 1.21248 9.95246C1.10748 9.73746 0.889977 9.59746 0.649976 9.59246C0.424977 9.58746 0.212476 9.70246 0.0924763 9.89246C-0.0275236 10.085 -0.0350236 10.325 0.0674766 10.5275C0.612476 11.615 1.50498 12.2675 1.96998 12.5525C-1.09252 18.7075 0.629977 22.7025 1.51748 24.135C1.78998 24.575 2.49748 25.6 3.19998 25.6C3.87998 25.6 4.22248 24.9875 4.52748 24.4475C4.76248 24.0325 5.02748 23.56 5.38498 23.395C8.31248 22.055 13.0125 22.065 17.0775 23.42C17.895 23.6925 18.585 24.1325 19.25 24.5575C20.09 25.095 20.8825 25.6 21.76 25.6C21.98 25.6 22.185 25.51 22.34 25.3475C22.6325 25.0375 22.725 24.5075 22.67 23.45C22.655 23.145 22.7075 22.8525 22.8075 22.5775C20.3875 22.5325 17.5075 21.6875 16.6625 18.735C16.5675 18.395 16.765 18.04 17.105 17.9425C17.4425 17.85 17.8 18.045 17.8975 18.385C18.775 21.46 22.62 21.385 24.1725 21.2225C24.2475 21.195 24.32 21.165 24.3975 21.1475C25.645 20.84 26.54 20.6075 27.06 20.455C28.76 19.955 29.99 19.03 30.57 18.33C31.07 17.73 31.62 16.8275 31.6425 16.79L32.055 15.21L31.865 14.9675C31.8125 14.9 30.545 13.3 27.7525 12.205C25.5525 11.34 23.9175 11.015 23.3425 10.92C22.4 9.99246 21.19 8.95996 20.48 8.95996ZM23.8925 13.5475C24.485 13.5475 24.9625 14.025 24.9625 14.6175C24.9625 15.21 24.4825 15.6875 23.8925 15.6875C23.3025 15.6875 22.8225 15.21 22.8225 14.6175C22.8225 14.0275 23.3 13.5475 23.8925 13.5475Z" fill="black"/>
</g>
<defs>
<clipPath id="clip0_0_467">
<rect width="32" height="32" fill="white"/>
</clipPath>
</defs>
</svg>
