<svg width="32" height="32" viewBox="0 0 32 32" fill="none" xmlns="http://www.w3.org/2000/svg">
<path d="M13.76 1.28003C13.575 1.28003 12.97 1.31253 12.83 1.32503C6.35997 1.81253 1.48247 7.49503 1.95497 13.99C2.25997 18.27 4.90747 21.9925 8.59247 23.8175L8.33997 26.2675C7.64247 26.31 6.47747 26.445 5.47497 26.9475C5.15747 27.105 5.02997 27.49 5.18747 27.805C5.34497 28.1225 5.72997 28.25 6.04497 28.0925C7.07747 27.5775 8.86747 27.5225 8.93747 27.52C8.93747 27.5225 8.93997 27.5225 8.93997 27.52C8.93997 27.52 8.94747 27.52 8.94997 27.52C8.95247 27.52 8.95747 27.52 8.95997 27.52H10.24C10.47 27.5225 10.685 27.4025 10.8025 27.2025C10.9175 27.0025 10.9175 26.7575 10.8025 26.5575C10.685 26.3575 10.47 26.2375 10.24 26.24H9.62997L9.82747 24.33C10.6975 24.645 11.61 24.8625 12.5575 24.9575C12.76 24.9775 12.9575 24.9775 13.1575 24.9875L12.82 28.1875C12.12 28.23 10.9575 28.365 9.95247 28.8675C9.63747 29.025 9.50997 29.41 9.66747 29.725C9.82497 30.0425 10.21 30.17 10.5275 30.0125C11.5775 29.4875 13.44 29.44 13.44 29.44H14.72C14.95 29.4425 15.165 29.3225 15.2825 29.1225C15.3975 28.9225 15.3975 28.6775 15.2825 28.4775C15.165 28.2775 14.95 28.1575 14.72 28.16H14.11L14.44 25.01C14.4425 25 14.4425 24.9925 14.4425 24.9825C15.405 24.9175 16.345 24.7275 17.255 24.42L24.34 26.6725C24.755 26.805 25.195 26.87 25.655 26.87C25.9675 26.87 26.2925 26.8425 26.6275 26.78C28.305 26.425 29.585 25.3375 30.05 23.87L30.24 23.2625L22.7925 20.83C22.775 20.9725 22.7225 21.11 22.61 21.2175C22.415 21.4075 22.1875 21.6 21.9575 21.7725C20.31 23.055 18.78 23.68 17.29 23.68C13.1275 23.68 9.60997 20.02 9.60997 15.6875C9.60997 15.54 9.63247 15.2525 9.80997 14.4725C9.74497 14.2975 9.68497 14.12 9.63247 13.94C9.62997 13.925 9.63247 13.9075 9.62997 13.8925C9.62497 13.875 9.61747 13.8575 9.61247 13.84C9.32747 12.405 10.045 10.8575 11.2625 10.3C11.5825 10.1525 11.965 10.2925 12.11 10.6125C12.2575 10.935 12.1175 11.315 11.7975 11.4625C11.1875 11.7425 10.67 12.675 10.875 13.62L10.8775 13.6225C11.6725 16.3925 14.4825 18.56 17.29 18.56C17.705 18.56 18.005 18.48 18.23 18.32C16.21 16.4875 13.79 14.2825 13.03 13.575C13.7025 13.895 14.465 14.075 15.2675 14.075C15.7425 14.075 16.2025 14.005 16.64 13.8875V15.4425L17.36 15.35C19.56 15.065 21.3825 13.635 22.0875 11.6825C22.0975 11.6725 22.16 11.61 22.16 11.385L22.14 11.55C22.2825 11.0125 22.3825 10.4425 22.4 9.85003V9.82003C22.375 8.15503 21.555 6.68503 20.2925 5.70003C19.32 3.14003 17.4 1.62253 14.7025 1.32753C14.55 1.31253 13.945 1.28003 13.76 1.28003ZM17.92 5.96753C19.755 6.50503 21.085 8.00003 21.1175 9.83003C21.1025 10.2925 21.025 10.755 20.905 11.2075L20.9 11.215C20.455 12.49 19.3325 13.4775 17.92 13.8875V5.96753ZM14.4 7.04003C14.93 7.04003 15.36 7.47003 15.36 8.00003C15.36 8.53003 14.93 8.96003 14.4 8.96003C13.87 8.96003 13.44 8.53003 13.44 8.00003C13.44 7.47003 13.87 7.04003 14.4 7.04003ZM16.64 9.39253V12.48C16.2075 12.645 15.765 12.795 15.2675 12.795C14.9425 12.795 14.67 12.6675 14.37 12.595L16.64 9.39253ZM10.95 16.55C11.37 19.7975 14.1 22.4 17.29 22.4C18.485 22.4 19.7575 21.8625 21.18 20.7575C21.3225 20.6475 21.455 20.535 21.58 20.4225L20.4125 20.05L20.0225 19.925L19.1925 19.1825C19.1825 19.195 19.1775 19.2075 19.165 19.22C18.69 19.635 18.0775 19.84 17.29 19.84C14.8375 19.84 12.455 18.53 10.95 16.55ZM17.2575 25.7625C17.12 25.805 16.98 25.835 16.8425 25.8725L20.8775 28.2025C21.5625 28.6 22.325 28.8025 23.1 28.8025C23.4925 28.8025 23.8875 28.75 24.2775 28.6475C24.7025 28.5325 25.1 28.36 25.4625 28.1375C24.9425 28.12 24.4325 28.045 23.955 27.8925L17.2575 25.7625Z" fill="black"/>
</svg>
