<svg width="24" height="24" viewBox="0 0 24 24" fill="none" xmlns="http://www.w3.org/2000/svg">
<g clip-path="url(#clip0_75_248)">
<path fill-rule="evenodd" clip-rule="evenodd" d="M11.9633 0H12.0367C13.824 0 15.2152 -1.18822e-05 16.3346 0.0826681C17.4707 0.166572 18.398 0.339204 19.243 0.722004C21.0329 1.53302 22.467 2.96711 23.278 4.75708C23.6608 5.60194 23.8334 6.52926 23.9173 7.66537C24 8.78478 24 10.176 24 11.9633V12.0367C24 13.824 24 15.2152 23.9173 16.3346C23.8334 17.4707 23.6608 18.398 23.278 19.243C22.467 21.0329 21.0329 22.467 19.243 23.278C18.398 23.6608 17.4707 23.8334 16.3346 23.9173C15.2152 24 13.824 24 12.0367 24H11.9633C10.176 24 8.78478 24 7.66537 23.9173C6.52926 23.8334 5.60192 23.6608 4.75708 23.278C2.96711 22.467 1.53302 21.0329 0.722004 19.243C0.339204 18.398 0.166572 17.4707 0.0826681 16.3346C-1.18822e-05 15.2152 0 13.824 0 12.0367V11.9633C0 10.176 -1.18822e-05 8.78479 0.0826681 7.66537C0.166572 6.52926 0.339204 5.60192 0.722004 4.75708C1.53302 2.96711 2.96711 1.53302 4.75708 0.722004C5.60194 0.339204 6.52926 0.166572 7.66537 0.0826681C8.78479 -1.18822e-05 10.176 0 11.9633 0ZM7.79795 1.87777C6.76159 1.95432 6.07153 2.10258 5.49995 2.36155C4.10776 2.99236 2.99236 4.10776 2.36156 5.49995C2.10258 6.07153 1.95432 6.76159 1.87778 7.79795C1.80058 8.84334 1.8 10.1683 1.8 12C1.8 13.8317 1.80058 15.1566 1.87777 16.202C1.95432 17.2384 2.10258 17.9285 2.36155 18.5C2.99236 19.8923 4.10776 21.0077 5.49995 21.6384C6.07153 21.8975 6.76159 22.0457 7.79795 22.1222C8.84334 22.1994 10.1683 22.2 12 22.2C13.8317 22.2 15.1566 22.1994 16.202 22.1222C17.2384 22.0457 17.9285 21.8975 18.5 21.6384C19.8923 21.0077 21.0077 19.8923 21.6384 18.5C21.8975 17.9285 22.0457 17.2384 22.1222 16.202C22.1994 15.1566 22.2 13.8317 22.2 12C22.2 10.1683 22.1994 8.84334 22.1222 7.79795C22.0457 6.76159 21.8975 6.07153 21.6384 5.49995C21.0077 4.10776 19.8923 2.99236 18.5 2.36156C17.9285 2.10258 17.2384 1.95432 16.202 1.87778C15.1566 1.80058 13.8317 1.8 12 1.8C10.1683 1.8 8.84334 1.80058 7.79795 1.87777ZM13.7363 5.58118C14.216 5.71086 14.5 6.20497 14.3702 6.68482L11.3702 17.7848C11.2405 18.2646 10.7465 18.5485 10.2666 18.4188C9.78672 18.2891 9.50291 17.795 9.63264 17.3152L12.6326 6.21518C12.7622 5.73534 13.2564 5.45148 13.7363 5.58118ZM8.76394 8.01257C9.10037 8.37846 9.07648 8.94781 8.71058 9.28424L5.75702 12L8.71058 14.7157C9.07648 15.0522 9.10037 15.6215 8.76392 15.9875C8.42749 16.3534 7.85815 16.3772 7.49226 16.0408L3.81817 12.6625C3.63282 12.4921 3.52734 12.2518 3.52734 12C3.52734 11.7482 3.63282 11.5079 3.81817 11.3375L7.49226 7.95923C7.85815 7.6228 8.42749 7.64668 8.76394 8.01257ZM15.2389 8.01257C15.5754 7.64668 16.1447 7.6228 16.5106 7.95923L20.1847 11.3375C20.37 11.5079 20.4755 11.7482 20.4755 12C20.4755 12.2518 20.37 12.4921 20.1847 12.6625L16.5106 16.0408C16.1447 16.3772 15.5754 16.3534 15.2389 15.9875C14.9024 15.6215 14.9263 15.0522 15.2922 14.7157L18.2458 12L15.2922 9.28424C14.9263 8.94781 14.9024 8.37846 15.2389 8.01257Z" fill="black"/>
</g>
<defs>
<clipPath id="clip0_75_248">
<rect width="24" height="24" fill="white"/>
</clipPath>
</defs>
</svg>
