<svg width="24" height="24" viewBox="0 0 24 24" fill="none" xmlns="http://www.w3.org/2000/svg">
<path fill-rule="evenodd" clip-rule="evenodd" d="M4.70348 1H19.2965C19.9375 0.999988 20.4725 0.999976 20.9096 1.0368C21.3655 1.07521 21.7934 1.15826 22.1982 1.37091C22.8191 1.69718 23.3239 2.21778 23.6404 2.85811C23.8465 3.27546 23.927 3.71682 23.9644 4.18691C24 4.63764 24 5.18936 24 5.85036V13.1906C24 13.8516 24 14.4032 23.9644 14.8541C23.927 15.3242 23.8465 15.7655 23.6404 16.1829C23.3239 16.8231 22.8191 17.3437 22.1982 17.6701C21.7934 17.8827 21.3655 17.9657 20.9096 18.0042C20.4725 18.0409 19.9375 18.0409 19.2966 18.0409H15.0376V21.4532C15.0376 22.3075 14.3659 23 13.5376 23H10.4626C9.63408 23 8.9625 22.3075 8.9625 21.4532V18.0409H4.70346C4.06248 18.0409 3.52747 18.0409 3.0904 18.0042C2.63454 17.9657 2.20655 17.8827 1.80184 17.6701C1.1809 17.3437 0.676057 16.8231 0.359677 16.1829C0.153469 15.7655 0.0729366 15.3242 0.0356886 14.8541C-2.34447e-05 14.4032 -1.15602e-05 13.8516 4.39753e-07 13.1905V5.85038C-1.15602e-05 5.18937 -2.34447e-05 4.63765 0.0356886 4.18691C0.0729366 3.71682 0.153469 3.27546 0.359677 2.85811C0.676057 2.21778 1.1809 1.69718 1.80184 1.37091C2.20655 1.15826 2.63454 1.07521 3.0904 1.0368C3.52747 0.999976 4.06249 0.999988 4.70348 1ZM10.7626 18.0409V21.1438H13.2376V18.0409H10.7626ZM3.23698 2.88686C2.89243 2.91589 2.72768 2.96771 2.61901 3.02481C2.33677 3.17312 2.1073 3.40975 1.96349 3.70081C1.90812 3.81287 1.85786 3.98277 1.82971 4.33807C1.8007 4.70422 1.8 5.17968 1.8 5.88804V13.1529C1.8 13.8612 1.8007 14.3367 1.82971 14.7028C1.85786 15.0582 1.90812 15.228 1.96349 15.3401C2.1073 15.6312 2.33677 15.8678 2.61901 16.0162C2.72768 16.0732 2.89243 16.1251 3.23698 16.154C3.59203 16.184 4.05308 16.1847 4.74 16.1847H19.26C19.9469 16.1847 20.4079 16.184 20.763 16.154C21.1075 16.1251 21.2723 16.0732 21.381 16.0162C21.6632 15.8678 21.8927 15.6312 22.0366 15.3401C22.0919 15.228 22.1422 15.0582 22.1702 14.7028C22.1993 14.3367 22.2 13.8612 22.2 13.1529V5.88804C22.2 5.17967 22.1993 4.70422 22.1702 4.33807C22.1422 3.98277 22.0919 3.81287 22.0366 3.70081C21.8927 3.40975 21.6632 3.17311 21.381 3.02481C21.2723 2.96771 21.1075 2.91589 20.763 2.88686C20.4079 2.85693 19.9469 2.85622 19.26 2.85622H4.74C4.05308 2.85622 3.59203 2.85693 3.23698 2.88686Z" fill="black"/>
</svg>
