<svg width="24" height="24" viewBox="0 0 24 24" fill="none" xmlns="http://www.w3.org/2000/svg">
<g clip-path="url(#clip0_75_250)">
<path fill-rule="evenodd" clip-rule="evenodd" d="M11.9633 0H12.0367C13.824 0 15.2152 -1.18822e-05 16.3346 0.0826681C17.4707 0.166572 18.398 0.339204 19.243 0.722004C21.0329 1.53302 22.467 2.96711 23.278 4.75708C23.6608 5.60194 23.8334 6.52926 23.9173 7.66537C24 8.78478 24 10.176 24 11.9633V12.0367C24 13.824 24 15.2152 23.9173 16.3346C23.8334 17.4707 23.6608 18.398 23.278 19.243C22.467 21.0329 21.0329 22.467 19.243 23.278C18.398 23.6608 17.4707 23.8334 16.3346 23.9173C15.2152 24 13.824 24 12.0367 24H11.9633C10.176 24 8.78478 24 7.66537 23.9173C6.52926 23.8334 5.60192 23.6608 4.75708 23.278C2.96711 22.467 1.53302 21.0329 0.722004 19.243C0.339204 18.398 0.166572 17.4707 0.0826681 16.3346C-1.18822e-05 15.2152 0 13.824 0 12.0367V11.9633C0 10.176 -1.18822e-05 8.78479 0.0826681 7.66537C0.166572 6.52926 0.339204 5.60192 0.722004 4.75708C1.53302 2.96711 2.96711 1.53302 4.75708 0.722004C5.60194 0.339204 6.52926 0.166572 7.66537 0.0826681C8.78479 -1.18822e-05 10.176 0 11.9633 0ZM7.79795 1.87777C6.76159 1.95432 6.07153 2.10258 5.49995 2.36155C4.10776 2.99236 2.99236 4.10776 2.36156 5.49995C2.10258 6.07153 1.95432 6.76159 1.87778 7.79795C1.80058 8.84334 1.8 10.1683 1.8 12C1.8 13.8317 1.80058 15.1566 1.87777 16.202C1.95432 17.2384 2.10258 17.9285 2.36155 18.5C2.65879 19.1561 3.06365 19.7507 3.55435 20.262C5.02496 17.0701 8.25269 14.8524 12.0004 14.8524C15.7478 14.8524 18.9755 17.0699 20.4462 20.2614C20.9366 19.7502 21.3413 19.1558 21.6384 18.5C21.8975 17.9285 22.0457 17.2384 22.1222 16.202C22.1994 15.1566 22.2 13.8317 22.2 12C22.2 10.1683 22.1994 8.84334 22.1222 7.79795C22.0457 6.76159 21.8975 6.07153 21.6384 5.49995C21.0077 4.10776 19.8923 2.99236 18.5 2.36156C17.9285 2.10258 17.2384 1.95432 16.202 1.87778C15.1566 1.80058 13.8317 1.8 12 1.8C10.1683 1.8 8.84334 1.80058 7.79795 1.87777ZM18.9754 21.3984C17.8784 18.6175 15.1678 16.6524 12.0004 16.6524C8.83285 16.6524 6.12214 18.6178 5.02532 21.3988C5.17956 21.485 5.33788 21.565 5.49995 21.6384C6.07153 21.8975 6.76159 22.0457 7.79795 22.1222C8.84334 22.1994 10.1683 22.2 12 22.2C13.8317 22.2 15.1566 22.1994 16.202 22.1222C17.2384 22.0457 17.9285 21.8975 18.5 21.6384C18.6624 21.565 18.8209 21.4848 18.9754 21.3984ZM12.1823 6.25741C10.6014 6.25741 9.31992 7.53892 9.31992 9.11975C9.31992 10.7005 10.6014 11.9821 12.1823 11.9821C13.763 11.9821 15.0446 10.7005 15.0446 9.11975C15.0446 7.53892 13.763 6.25741 12.1823 6.25741ZM7.51992 9.11975C7.51992 6.54481 9.60732 4.45741 12.1823 4.45741C14.7572 4.45741 16.8446 6.54481 16.8446 9.11975C16.8446 11.6947 14.7572 13.7821 12.1823 13.7821C9.60732 13.7821 7.51992 11.6947 7.51992 9.11975Z" fill="black"/>
</g>
<defs>
<clipPath id="clip0_75_250">
<rect width="24" height="24" fill="white"/>
</clipPath>
</defs>
</svg>
